# xmcd
#
# Track frame offsets:
#	150
#	20731
#	44956
#	66971
#	84149
#	104591
#	131640
#	154591
#	174846
#	197154
#
# Disc length: 2957 seconds
#
# Revision: 1
# Processed by: cddbd v1.5.2PL0 Copyright (c) Steve Scherf et al.
# Submitted via: EasyCDDAExtractor 16.0.9.1
#
DISCID=870b8b0a
DTITLE=Hương Thủy - HTCD: Lời Người Viễn Xứ
DYEAR=2013
DGENRE=Country
TTITLE0=Lời Người Viễn Xứ (Lê Dinh)
TTITLE1=Cơn Mê Tình Ái (Lê Kim - Tuấn Hải)
TTITLE2=Áo Mới Cà Mau (Thanh Sơn)
TTITLE3=Xác Pháo Nhà Ai (Lê Dinh)
TTITLE4=Trăng Về Thôn Dã (Hoài An - Huyền Linh)
TTITLE5=Sao Chưa Thấy Hồi Âm (Châu Kỳ)
TTITLE6=Vọng Cổ Buồn (Minh Vy)
TTITLE7=Chiều Tây Đô (Lam Phương)
TTITLE8=Bông Điên Điển (Hà Phương)
TTITLE9=Miền Tây Quê Tôi (Cao Minh Thu)
EXTD=
EXTT0=
EXTT1=
EXTT2=
EXTT3=
EXTT4=
EXTT5=
EXTT6=
EXTT7=
EXTT8=
EXTT9=
PLAYORDER=
